<?xml version="1.0" encoding="UTF-8"?>
<svg xmlns="http://www.w3.org/2000/svg" xmlns:xlink="http://www.w3.org/1999/xlink" width="507pt" height="100pt" viewBox="0 0 507 100" version="1.1">
<g id="surface1">
<path style=" stroke:none;fill-rule:nonzero;fill:rgb(1.960784%,27.843137%,32.156863%);fill-opacity:1;" d="M 97.988281 50.878906 C 95.421875 35.84375 81.167969 25.710938 66.136719 28.242188 L 70.5625 3.039062 L 54.484375 0.203125 C 53.097656 3.242188 47.050781 17.0625 44.113281 32.636719 C 50.09375 36.722656 54.484375 43.140625 55.800781 50.84375 C 57.183594 59.085938 54.785156 67.09375 49.855469 73.039062 C 51.070312 74.527344 52.457031 75.878906 54.011719 77.09375 C 60.292969 82.027344 67.925781 83.953125 75.359375 82.703125 C 90.421875 80.167969 100.554688 65.914062 97.988281 50.878906 Z M 97.988281 50.878906 "/>
<path style=" stroke:none;fill-rule:nonzero;fill:rgb(17.647059%,74.509804%,100%);fill-opacity:1;" d="M 43.808594 34.359375 L 44.113281 32.636719 C 38.40625 28.75 31.277344 26.992188 23.949219 28.210938 L 28.375 3.007812 L 12.296875 0.167969 C 10.875 3.3125 4.425781 18.039062 1.621094 34.324219 C -0.609375 47.398438 -0.507812 61.453125 6.382812 71.351562 C 7.871094 73.480469 9.660156 75.40625 11.820312 77.09375 C 18.105469 82.027344 25.738281 83.953125 33.167969 82.703125 C 39.992188 81.554688 45.769531 77.972656 49.855469 73.039062 C 49.417969 72.5 48.976562 71.925781 48.570312 71.351562 C 41.679688 61.488281 41.582031 47.433594 43.808594 34.359375 Z M 43.808594 34.359375 "/>
<path style=" stroke:none;fill-rule:nonzero;fill:rgb(61.960784%,96.862745%,41.176471%);fill-opacity:1;" d="M 55.800781 50.878906 C 54.484375 43.175781 50.09375 36.757812 44.113281 32.667969 L 43.808594 34.390625 C 41.582031 47.464844 41.679688 61.519531 48.570312 71.417969 C 48.976562 71.992188 49.417969 72.566406 49.855469 73.109375 C 54.785156 67.09375 57.21875 59.085938 55.800781 50.878906 Z M 55.800781 50.878906 "/>
<path style=" stroke:none;fill-rule:nonzero;fill:rgb(1.960784%,27.843137%,32.156863%);fill-opacity:1;" d="M 422.21875 77.164062 L 412.59375 77.164062 C 412.289062 77.164062 412.019531 77.363281 411.917969 77.636719 C 410.53125 81.183594 408.671875 84.15625 405.972656 86.25 C 403.304688 88.34375 399.824219 89.527344 395.296875 89.527344 C 389.117188 89.527344 384.152344 86.824219 380.738281 82.296875 C 377.363281 77.769531 375.503906 71.453125 375.503906 64.222656 C 375.503906 56.925781 377.363281 50.609375 380.773438 46.113281 C 384.183594 41.621094 389.148438 38.917969 395.265625 38.917969 C 399.789062 38.917969 403.234375 40.101562 405.9375 42.164062 C 408.605469 44.222656 410.496094 47.195312 411.882812 50.675781 C 411.984375 50.945312 412.253906 51.148438 412.558594 51.148438 L 422.183594 51.148438 C 422.386719 51.148438 422.554688 51.082031 422.691406 50.945312 C 422.828125 50.8125 422.894531 50.640625 422.894531 50.4375 L 422.859375 50.269531 C 421.40625 43.75 418.265625 38.378906 413.605469 34.664062 C 408.945312 30.945312 402.761719 28.816406 395.230469 28.816406 C 386.414062 28.816406 378.644531 32.398438 373.074219 38.582031 C 367.5 44.796875 364.121094 53.613281 364.121094 64.1875 C 364.121094 74.761719 367.5 83.613281 373.074219 89.796875 C 378.644531 96.011719 386.414062 99.5625 395.230469 99.5625 C 402.730469 99.5625 408.875 97.464844 413.570312 93.714844 C 418.234375 89.964844 421.40625 84.59375 422.859375 78.007812 L 422.894531 77.835938 C 422.894531 77.636719 422.828125 77.464844 422.691406 77.332031 C 422.625 77.230469 422.421875 77.164062 422.21875 77.164062 Z M 506.390625 48.75 C 505.75 48.613281 504.769531 48.480469 503.453125 48.480469 C 502.304688 48.480469 500.886719 48.582031 499.265625 48.886719 C 497.847656 49.15625 496.425781 49.695312 495.078125 50.4375 C 493.726562 51.183594 492.40625 52.195312 491.191406 53.414062 C 490.484375 54.121094 489.839844 54.933594 489.234375 55.878906 L 488.792969 56.554688 L 488.792969 50.035156 C 488.792969 49.628906 488.457031 49.289062 488.050781 49.289062 L 479.03125 49.289062 C 478.625 49.289062 478.289062 49.628906 478.289062 50.035156 L 478.289062 97.972656 C 478.289062 98.378906 478.625 98.714844 479.03125 98.714844 L 488.253906 98.714844 C 488.660156 98.714844 488.996094 98.378906 488.996094 97.972656 L 488.996094 74.695312 C 488.996094 71.992188 489.300781 69.695312 489.910156 67.804688 C 490.515625 65.914062 491.429688 64.390625 492.644531 63.277344 C 493.859375 62.128906 495.246094 61.25 496.867188 60.675781 C 498.792969 60 500.851562 59.796875 502.609375 59.796875 C 504.027344 59.796875 505.277344 59.933594 506.121094 60.066406 L 506.222656 60.066406 C 506.628906 60.066406 506.933594 59.761719 506.933594 59.324219 L 506.933594 49.492188 C 507 49.121094 506.761719 48.816406 506.390625 48.75 Z M 307.308594 28.816406 L 307.171875 28.816406 L 297.882812 30.4375 C 297.546875 30.507812 297.277344 30.8125 297.277344 31.148438 L 297.277344 97.9375 C 297.277344 98.34375 297.613281 98.683594 298.019531 98.683594 L 307.339844 98.683594 C 307.746094 98.683594 308.085938 98.34375 308.085938 97.9375 L 308.085938 29.5625 C 308.050781 29.15625 307.710938 28.816406 307.308594 28.816406 Z M 288.191406 68.511719 C 286.804688 65.710938 284.945312 63.34375 282.617188 61.417969 L 281.941406 60.878906 C 280.925781 60.101562 279.8125 59.390625 278.628906 58.816406 L 278.359375 58.683594 L 278.5625 58.445312 C 279.644531 57.195312 280.554688 55.777344 281.265625 54.1875 C 282.277344 51.960938 282.785156 49.628906 282.785156 47.195312 C 282.785156 44.5625 282.246094 42.09375 281.230469 39.761719 C 280.183594 37.433594 278.765625 35.4375 276.941406 33.75 C 275.253906 32.195312 273.261719 30.980469 270.996094 30.101562 C 268.699219 29.222656 265.828125 28.785156 262.449219 28.785156 L 242.015625 28.785156 C 241.609375 28.785156 241.273438 29.121094 241.273438 29.527344 L 241.273438 97.972656 C 241.273438 98.378906 241.609375 98.714844 242.015625 98.714844 L 267.214844 98.714844 C 270.792969 98.714844 273.800781 98.3125 276.230469 97.5 C 278.628906 96.6875 280.792969 95.507812 282.617188 93.953125 C 284.945312 92.027344 286.839844 89.628906 288.222656 86.824219 C 288.527344 86.214844 288.796875 85.609375 289.035156 85 L 289.136719 84.761719 C 289.203125 84.628906 289.238281 84.460938 289.304688 84.289062 C 290.023438 82.167969 290.390625 79.941406 290.386719 77.703125 C 290.316406 74.390625 289.609375 71.316406 288.191406 68.511719 Z M 252.015625 39.085938 L 260.660156 39.085938 C 263.363281 39.085938 265.390625 39.324219 266.671875 39.796875 C 267.992188 40.269531 269.003906 40.945312 269.714844 41.789062 C 271.199219 43.414062 271.941406 45.304688 271.941406 47.5 C 271.941406 49.695312 271.199219 51.554688 269.714844 53.210938 C 268.96875 54.054688 267.992188 54.730469 266.671875 55.203125 C 265.726562 55.539062 264.34375 55.777344 262.585938 55.878906 L 252.015625 55.878906 Z M 278.429688 81.519531 C 277.855469 82.835938 277.109375 84.019531 276.164062 85.035156 C 275.082031 86.082031 273.765625 86.925781 272.210938 87.535156 C 270.660156 88.109375 268.328125 88.445312 265.222656 88.445312 L 252.015625 88.445312 L 252.015625 66.214844 L 265.222656 66.214844 C 268.328125 66.214844 270.660156 66.519531 272.210938 67.128906 C 273.800781 67.738281 275.117188 68.582031 276.164062 69.628906 C 277.109375 70.640625 277.855469 71.789062 278.429688 73.074219 C 279.003906 74.359375 279.273438 75.742188 279.273438 77.261719 C 279.304688 78.785156 279.003906 80.203125 278.429688 81.519531 Z M 352.0625 53.242188 C 348.449219 50 343.515625 48.378906 337.371094 48.378906 C 331.863281 48.378906 327.335938 49.730469 323.824219 52.398438 C 320.785156 54.695312 318.65625 57.601562 317.472656 61.046875 C 317.339844 61.417969 317.574219 61.824219 317.980469 61.890625 L 326.695312 63.414062 C 327 63.480469 327.269531 63.3125 327.40625 63.039062 C 329.160156 59.121094 332.503906 57.195312 337.4375 57.195312 C 340.746094 57.195312 343.347656 58.109375 345.171875 59.964844 C 346.996094 61.824219 347.941406 64.289062 347.941406 67.363281 L 347.941406 69.15625 C 343.3125 67.769531 338.957031 67.09375 334.902344 67.09375 C 329.160156 67.09375 324.363281 68.546875 320.546875 71.453125 C 316.730469 74.359375 314.839844 78.445312 314.839844 83.683594 C 314.839844 88.683594 316.5625 92.601562 320.042969 95.4375 C 323.519531 98.277344 327.710938 99.695312 332.640625 99.695312 C 338.957031 99.730469 344.089844 97.871094 347.941406 94.085938 L 347.941406 97.90625 C 347.941406 98.34375 348.3125 98.714844 348.753906 98.714844 L 356.792969 98.714844 C 357.230469 98.714844 357.601562 98.34375 357.601562 97.90625 L 357.601562 66.65625 C 357.535156 60.980469 355.710938 56.488281 352.0625 53.242188 Z M 343.855469 87.09375 C 341.152344 89.324219 337.84375 90.40625 333.925781 90.40625 C 331.054688 90.40625 328.824219 89.761719 327.304688 88.480469 C 325.785156 87.195312 325.007812 85.4375 325.007812 83.210938 C 325.007812 80.777344 325.988281 78.953125 327.910156 77.738281 C 329.835938 76.519531 332.304688 75.878906 335.308594 75.878906 C 339.195312 75.878906 343.382812 76.554688 347.875 77.9375 C 347.875 81.859375 346.523438 84.863281 343.855469 87.09375 Z M 181.960938 28.816406 L 181.824219 28.816406 L 172.535156 30.4375 C 172.199219 30.507812 171.925781 30.8125 171.925781 31.148438 L 171.925781 97.9375 C 171.925781 98.34375 172.265625 98.683594 172.671875 98.683594 L 181.992188 98.683594 C 182.398438 98.683594 182.734375 98.34375 182.734375 97.9375 L 182.734375 29.5625 C 182.703125 29.15625 182.363281 28.816406 181.960938 28.816406 Z M 162.839844 68.511719 C 161.457031 65.710938 159.597656 63.34375 157.269531 61.417969 L 156.59375 60.878906 C 155.578125 60.101562 154.464844 59.390625 153.28125 58.816406 L 153.011719 58.683594 L 153.214844 58.445312 C 154.296875 57.195312 155.207031 55.777344 155.917969 54.1875 C 156.929688 51.960938 157.4375 49.628906 157.4375 47.195312 C 157.4375 44.5625 156.894531 42.09375 155.882812 39.761719 C 154.835938 37.433594 153.417969 35.4375 151.59375 33.75 C 149.90625 32.195312 147.910156 30.980469 145.648438 30.101562 C 143.351562 29.222656 140.480469 28.785156 137.101562 28.785156 L 116.667969 28.785156 C 116.261719 28.785156 115.925781 29.121094 115.925781 29.527344 L 115.925781 97.972656 C 115.925781 98.378906 116.261719 98.714844 116.667969 98.714844 L 141.867188 98.714844 C 145.445312 98.714844 148.453125 98.3125 150.882812 97.5 C 153.28125 96.6875 155.445312 95.507812 157.269531 93.953125 C 159.597656 92.027344 161.488281 89.628906 162.875 86.824219 C 163.179688 86.214844 163.449219 85.609375 163.6875 85 L 163.785156 84.761719 C 163.855469 84.628906 163.886719 84.460938 163.957031 84.289062 C 164.675781 82.167969 165.039062 79.941406 165.035156 77.703125 C 164.96875 74.390625 164.261719 71.316406 162.839844 68.511719 Z M 126.664062 39.085938 L 135.3125 39.085938 C 138.015625 39.085938 140.042969 39.324219 141.324219 39.796875 C 142.640625 40.269531 143.65625 40.945312 144.363281 41.789062 C 145.851562 43.414062 146.59375 45.304688 146.59375 47.5 C 146.59375 49.695312 145.851562 51.554688 144.363281 53.210938 C 143.621094 54.054688 142.640625 54.730469 141.324219 55.203125 C 140.378906 55.539062 138.996094 55.777344 137.238281 55.878906 L 126.664062 55.878906 Z M 153.078125 81.519531 C 152.503906 82.835938 151.761719 84.019531 150.816406 85.035156 C 149.734375 86.082031 148.417969 86.925781 146.863281 87.535156 C 145.3125 88.109375 142.980469 88.445312 139.871094 88.445312 L 126.664062 88.445312 L 126.664062 66.214844 L 139.871094 66.214844 C 142.980469 66.214844 145.3125 66.519531 146.863281 67.128906 C 148.453125 67.738281 149.769531 68.582031 150.816406 69.628906 C 151.761719 70.640625 152.503906 71.789062 153.078125 73.074219 C 153.652344 74.359375 153.925781 75.742188 153.925781 77.261719 C 153.925781 78.785156 153.652344 80.203125 153.078125 81.519531 Z M 226.714844 53.242188 C 223.101562 50 218.167969 48.378906 212.019531 48.378906 C 206.515625 48.378906 201.988281 49.730469 198.476562 52.398438 C 195.4375 54.695312 193.308594 57.601562 192.125 61.046875 C 191.992188 61.417969 192.226562 61.824219 192.632812 61.890625 L 201.347656 63.414062 C 201.652344 63.480469 201.921875 63.3125 202.058594 63.039062 C 203.8125 59.121094 207.15625 57.195312 212.089844 57.195312 C 215.398438 57.195312 218 58.109375 219.824219 59.964844 C 221.648438 61.824219 222.59375 64.289062 222.59375 67.363281 L 222.59375 69.15625 C 217.964844 67.769531 213.609375 67.09375 209.554688 67.09375 C 203.8125 67.09375 199.015625 68.546875 195.199219 71.453125 C 191.382812 74.359375 189.492188 78.445312 189.492188 83.683594 C 189.492188 88.683594 191.214844 92.601562 194.695312 95.4375 C 198.171875 98.277344 202.359375 99.695312 207.292969 99.695312 C 213.609375 99.730469 218.742188 97.871094 222.59375 94.085938 L 222.59375 97.90625 C 222.59375 98.34375 222.964844 98.714844 223.402344 98.714844 L 231.441406 98.714844 C 231.882812 98.714844 232.253906 98.34375 232.253906 97.90625 L 232.253906 66.65625 C 232.152344 60.980469 230.363281 56.488281 226.714844 53.242188 Z M 218.472656 87.09375 C 215.769531 89.324219 212.460938 90.40625 208.542969 90.40625 C 205.671875 90.40625 203.441406 89.761719 201.921875 88.480469 C 200.402344 87.195312 199.625 85.4375 199.625 83.210938 C 199.625 80.777344 200.605469 78.953125 202.53125 77.738281 C 204.457031 76.519531 206.921875 75.878906 209.925781 75.878906 C 213.8125 75.878906 218 76.554688 222.492188 77.9375 C 222.527344 81.859375 221.175781 84.863281 218.472656 87.09375 Z M 465.285156 53.242188 C 461.671875 50 456.738281 48.378906 450.589844 48.378906 C 445.085938 48.378906 440.558594 49.730469 437.046875 52.398438 C 434.007812 54.695312 431.878906 57.601562 430.695312 61.046875 C 430.5625 61.417969 430.796875 61.824219 431.203125 61.890625 L 439.917969 63.414062 C 440.222656 63.480469 440.492188 63.3125 440.628906 63.039062 C 442.382812 59.121094 445.726562 57.195312 450.660156 57.195312 C 453.96875 57.195312 456.570312 58.109375 458.394531 59.964844 C 460.21875 61.824219 461.164062 64.289062 461.164062 67.363281 L 461.164062 69.15625 C 456.535156 67.769531 452.179688 67.09375 448.125 67.09375 C 442.382812 67.09375 437.585938 68.546875 433.769531 71.453125 C 429.953125 74.359375 428.0625 78.445312 428.0625 83.683594 C 428.0625 88.683594 429.785156 92.601562 433.265625 95.4375 C 436.742188 98.277344 440.929688 99.695312 445.863281 99.695312 C 452.179688 99.730469 457.3125 97.871094 461.164062 94.085938 L 461.164062 97.90625 C 461.164062 98.34375 461.535156 98.714844 461.976562 98.714844 L 470.011719 98.714844 C 470.453125 98.714844 470.824219 98.34375 470.824219 97.90625 L 470.824219 66.65625 C 470.722656 60.980469 468.898438 56.488281 465.285156 53.242188 Z M 457.042969 87.09375 C 454.339844 89.324219 451.03125 90.40625 447.113281 90.40625 C 444.242188 90.40625 442.011719 89.761719 440.492188 88.480469 C 438.972656 87.195312 438.195312 85.4375 438.195312 83.210938 C 438.195312 80.777344 439.175781 78.953125 441.101562 77.738281 C 443.027344 76.519531 445.492188 75.878906 448.496094 75.878906 C 452.382812 75.878906 456.570312 76.554688 461.0625 77.9375 C 461.097656 81.859375 459.746094 84.863281 457.042969 87.09375 Z M 457.042969 87.09375 "/>
</g>
</svg>
