<?xml version="1.0" encoding="UTF-8"?>
<svg xmlns="http://www.w3.org/2000/svg" xmlns:xlink="http://www.w3.org/1999/xlink" width="760pt" height="150pt" viewBox="0 0 760 150" version="1.1">
<g id="surface1">
<path style=" stroke:none;fill-rule:nonzero;fill:rgb(1.960784%,27.843137%,32.156863%);fill-opacity:1;" d="M 146.886719 76.316406 C 143.039062 53.765625 121.671875 38.5625 99.140625 42.363281 L 105.773438 4.5625 L 81.671875 0.304688 C 79.59375 4.863281 70.53125 25.589844 66.125 48.953125 C 75.089844 55.085938 81.671875 64.710938 83.644531 76.265625 C 85.722656 88.632812 82.125 100.640625 74.734375 109.5625 C 76.558594 111.789062 78.632812 113.816406 80.960938 115.640625 C 90.378906 123.039062 101.824219 125.929688 112.960938 124.054688 C 135.542969 120.253906 150.734375 98.867188 146.886719 76.316406 Z M 146.886719 76.316406 "/>
<path style=" stroke:none;fill-rule:nonzero;fill:rgb(17.647059%,74.509804%,100%);fill-opacity:1;" d="M 65.671875 51.539062 L 66.125 48.953125 C 57.570312 43.125 46.886719 40.488281 35.898438 42.3125 L 42.53125 4.511719 L 18.429688 0.253906 C 16.304688 4.964844 6.632812 27.0625 2.429688 51.488281 C -0.910156 71.097656 -0.757812 92.179688 9.570312 107.027344 C 11.796875 110.21875 14.480469 113.109375 17.722656 115.640625 C 27.140625 123.039062 38.582031 125.929688 49.722656 124.054688 C 59.949219 122.332031 68.609375 116.960938 74.734375 109.5625 C 74.074219 108.75 73.417969 107.886719 72.808594 107.027344 C 62.480469 92.230469 62.328125 71.148438 65.671875 51.539062 Z M 65.671875 51.539062 "/>
<path style=" stroke:none;fill-rule:nonzero;fill:rgb(61.960784%,96.862745%,41.176471%);fill-opacity:1;" d="M 83.644531 76.316406 C 81.671875 64.761719 75.089844 55.136719 66.125 49.003906 L 65.671875 51.585938 C 62.328125 71.199219 62.480469 92.28125 72.808594 107.128906 C 73.417969 107.988281 74.074219 108.851562 74.734375 109.664062 C 82.125 100.640625 85.773438 88.632812 83.644531 76.316406 Z M 83.644531 76.316406 "/>
<path style=" stroke:none;fill-rule:nonzero;fill:rgb(1.960784%,27.843137%,32.156863%);fill-opacity:1;" d="M 632.910156 115.742188 L 618.480469 115.742188 C 618.023438 115.742188 617.621094 116.046875 617.46875 116.453125 C 615.390625 121.773438 612.609375 126.234375 608.558594 129.375 C 604.558594 132.515625 599.339844 134.289062 592.558594 134.289062 C 583.292969 134.289062 575.847656 130.238281 570.734375 123.445312 C 565.671875 116.65625 562.886719 107.179688 562.886719 96.335938 C 562.886719 85.386719 565.671875 75.914062 570.785156 69.171875 C 575.898438 62.433594 583.339844 58.378906 592.507812 58.378906 C 599.292969 58.378906 604.457031 60.152344 608.507812 63.242188 C 612.507812 66.335938 615.339844 70.792969 617.417969 76.011719 C 617.570312 76.417969 617.976562 76.722656 618.429688 76.722656 L 632.859375 76.722656 C 633.164062 76.722656 633.417969 76.621094 633.621094 76.417969 C 633.824219 76.214844 633.925781 75.960938 633.925781 75.660156 L 633.875 75.40625 C 631.695312 65.625 626.988281 57.566406 620 51.992188 C 613.011719 46.417969 603.746094 43.226562 592.457031 43.226562 C 579.242188 43.226562 567.59375 48.597656 559.242188 57.871094 C 550.886719 67.195312 545.824219 80.421875 545.824219 96.285156 C 545.824219 112.144531 550.886719 125.421875 559.242188 134.695312 C 567.59375 144.019531 579.242188 149.339844 592.457031 149.339844 C 603.695312 149.339844 612.910156 146.199219 619.949219 140.574219 C 626.9375 134.949219 631.695312 126.890625 633.875 117.011719 L 633.925781 116.757812 C 633.925781 116.453125 633.824219 116.199219 633.621094 115.996094 C 633.519531 115.84375 633.214844 115.742188 632.910156 115.742188 Z M 759.089844 73.125 C 758.125 72.921875 756.660156 72.71875 754.683594 72.71875 C 752.960938 72.71875 750.835938 72.871094 748.40625 73.328125 C 746.277344 73.734375 744.152344 74.542969 742.125 75.660156 C 740.101562 76.773438 738.125 78.292969 736.304688 80.117188 C 735.242188 81.183594 734.277344 82.398438 733.367188 83.816406 L 732.707031 84.832031 L 732.707031 75.050781 C 732.707031 74.441406 732.203125 73.9375 731.59375 73.9375 L 718.074219 73.9375 C 717.46875 73.9375 716.960938 74.441406 716.960938 75.050781 L 716.960938 146.960938 C 716.960938 147.566406 717.46875 148.074219 718.074219 148.074219 L 731.898438 148.074219 C 732.507812 148.074219 733.011719 147.566406 733.011719 146.960938 L 733.011719 112.042969 C 733.011719 107.988281 733.46875 104.542969 734.378906 101.707031 C 735.292969 98.867188 736.660156 96.585938 738.480469 94.914062 C 740.304688 93.191406 742.378906 91.875 744.808594 91.011719 C 747.695312 90 750.785156 89.695312 753.417969 89.695312 C 755.542969 89.695312 757.417969 89.898438 758.683594 90.101562 L 758.835938 90.101562 C 759.441406 90.101562 759.898438 89.644531 759.898438 88.988281 L 759.898438 74.238281 C 760 73.683594 759.644531 73.226562 759.089844 73.125 Z M 460.660156 43.226562 L 460.457031 43.226562 L 446.53125 45.660156 C 446.023438 45.761719 445.621094 46.214844 445.621094 46.722656 L 445.621094 146.910156 C 445.621094 147.515625 446.125 148.023438 446.734375 148.023438 L 460.707031 148.023438 C 461.316406 148.023438 461.824219 147.515625 461.824219 146.910156 L 461.824219 44.339844 C 461.773438 43.734375 461.265625 43.226562 460.660156 43.226562 Z M 432 102.769531 C 429.925781 98.5625 427.140625 95.015625 423.644531 92.128906 L 422.632812 91.316406 C 421.113281 90.152344 419.441406 89.085938 417.671875 88.226562 L 417.265625 88.023438 L 417.570312 87.667969 C 419.191406 85.792969 420.558594 83.664062 421.621094 81.285156 C 423.140625 77.9375 423.898438 74.441406 423.898438 70.792969 C 423.898438 66.839844 423.089844 63.140625 421.570312 59.644531 C 420 56.148438 417.875 53.160156 415.140625 50.625 C 412.609375 48.292969 409.621094 46.46875 406.226562 45.152344 C 402.785156 43.835938 398.480469 43.175781 393.417969 43.175781 L 362.785156 43.175781 C 362.175781 43.175781 361.671875 43.683594 361.671875 44.289062 L 361.671875 146.960938 C 361.671875 147.566406 362.175781 148.074219 362.785156 148.074219 L 400.558594 148.074219 C 405.925781 148.074219 410.429688 147.464844 414.074219 146.25 C 417.671875 145.035156 420.910156 143.261719 423.644531 140.929688 C 427.140625 138.039062 429.976562 134.441406 432.050781 130.238281 C 432.507812 129.324219 432.910156 128.414062 433.265625 127.5 L 433.417969 127.144531 C 433.519531 126.941406 433.570312 126.6875 433.671875 126.4375 C 434.75 123.253906 435.296875 119.914062 435.292969 116.554688 C 435.191406 111.585938 434.125 106.976562 432 102.769531 Z M 377.773438 58.632812 L 390.734375 58.632812 C 394.785156 58.632812 397.824219 58.988281 399.746094 59.695312 C 401.722656 60.40625 403.242188 61.417969 404.304688 62.6875 C 406.53125 65.117188 407.644531 67.957031 407.644531 71.25 C 407.644531 74.542969 406.53125 77.332031 404.304688 79.8125 C 403.191406 81.082031 401.722656 82.09375 399.746094 82.804688 C 398.328125 83.3125 396.253906 83.664062 393.621094 83.816406 L 377.773438 83.816406 Z M 417.367188 122.28125 C 416.507812 124.257812 415.390625 126.03125 413.976562 127.550781 C 412.355469 129.121094 410.378906 130.386719 408.050781 131.300781 C 405.722656 132.164062 402.226562 132.667969 397.570312 132.667969 L 377.773438 132.667969 L 377.773438 99.324219 L 397.570312 99.324219 C 402.226562 99.324219 405.722656 99.78125 408.050781 100.691406 C 410.429688 101.605469 412.40625 102.871094 413.976562 104.441406 C 415.390625 105.960938 416.507812 107.6875 417.367188 109.613281 C 418.226562 111.539062 418.632812 113.613281 418.632812 115.894531 C 418.683594 118.175781 418.226562 120.304688 417.367188 122.28125 Z M 527.746094 79.863281 C 522.328125 75 514.9375 72.566406 505.722656 72.566406 C 497.46875 72.566406 490.683594 74.59375 485.417969 78.597656 C 480.859375 82.042969 477.671875 86.402344 475.898438 91.570312 C 475.695312 92.128906 476.050781 92.738281 476.660156 92.835938 L 489.722656 95.117188 C 490.175781 95.21875 490.582031 94.964844 490.785156 94.5625 C 493.417969 88.683594 498.429688 85.792969 505.824219 85.792969 C 510.785156 85.792969 514.683594 87.164062 517.417969 89.949219 C 520.152344 92.738281 521.570312 96.4375 521.570312 101.046875 L 521.570312 103.734375 C 514.632812 101.65625 508.101562 100.640625 502.023438 100.640625 C 493.417969 100.640625 486.226562 102.820312 480.507812 107.179688 C 474.785156 111.539062 471.949219 117.667969 471.949219 125.523438 C 471.949219 133.023438 474.53125 138.902344 479.746094 143.160156 C 484.960938 147.414062 491.242188 149.542969 498.632812 149.542969 C 508.101562 149.59375 515.796875 146.808594 521.570312 141.132812 L 521.570312 146.859375 C 521.570312 147.515625 522.125 148.074219 522.785156 148.074219 L 534.835938 148.074219 C 535.492188 148.074219 536.050781 147.515625 536.050781 146.859375 L 536.050781 99.984375 C 535.949219 91.46875 533.214844 84.730469 527.746094 79.863281 Z M 515.441406 130.640625 C 511.390625 133.988281 506.429688 135.609375 500.558594 135.609375 C 496.253906 135.609375 492.910156 134.644531 490.632812 132.71875 C 488.355469 130.792969 487.191406 128.160156 487.191406 124.8125 C 487.191406 121.164062 488.660156 118.429688 491.542969 116.605469 C 494.429688 114.78125 498.125 113.816406 502.632812 113.816406 C 508.457031 113.816406 514.734375 114.832031 521.46875 116.910156 C 521.46875 122.789062 519.441406 127.296875 515.441406 130.640625 Z M 272.757812 43.226562 L 272.558594 43.226562 L 258.632812 45.660156 C 258.125 45.761719 257.722656 46.214844 257.722656 46.722656 L 257.722656 146.910156 C 257.722656 147.515625 258.226562 148.023438 258.835938 148.023438 L 272.808594 148.023438 C 273.417969 148.023438 273.925781 147.515625 273.925781 146.910156 L 273.925781 44.339844 C 273.875 43.734375 273.367188 43.226562 272.757812 43.226562 Z M 244.101562 102.769531 C 242.023438 98.5625 239.242188 95.015625 235.746094 92.128906 L 234.734375 91.316406 C 233.214844 90.152344 231.542969 89.085938 229.773438 88.226562 L 229.367188 88.023438 L 229.671875 87.667969 C 231.292969 85.792969 232.660156 83.664062 233.722656 81.285156 C 235.242188 77.9375 236 74.441406 236 70.792969 C 236 66.839844 235.191406 63.140625 233.671875 59.644531 C 232.101562 56.148438 229.976562 53.160156 227.242188 50.625 C 224.707031 48.292969 221.722656 46.46875 218.328125 45.152344 C 214.886719 43.835938 210.582031 43.175781 205.519531 43.175781 L 174.886719 43.175781 C 174.277344 43.175781 173.773438 43.683594 173.773438 44.289062 L 173.773438 146.960938 C 173.773438 147.566406 174.277344 148.074219 174.886719 148.074219 L 212.660156 148.074219 C 218.023438 148.074219 222.53125 147.464844 226.175781 146.25 C 229.773438 145.035156 233.011719 143.261719 235.746094 140.929688 C 239.242188 138.039062 242.074219 134.441406 244.152344 130.238281 C 244.609375 129.324219 245.011719 128.414062 245.367188 127.5 L 245.519531 127.144531 C 245.621094 126.941406 245.671875 126.6875 245.773438 126.4375 C 246.851562 123.253906 247.398438 119.914062 247.390625 116.554688 C 247.292969 111.585938 246.226562 106.976562 244.101562 102.769531 Z M 189.875 58.632812 L 202.835938 58.632812 C 206.886719 58.632812 209.925781 58.988281 211.847656 59.695312 C 213.824219 60.40625 215.339844 61.417969 216.40625 62.6875 C 218.632812 65.117188 219.746094 67.957031 219.746094 71.25 C 219.746094 74.542969 218.632812 77.332031 216.40625 79.8125 C 215.292969 81.082031 213.824219 82.09375 211.847656 82.804688 C 210.429688 83.3125 208.355469 83.664062 205.722656 83.816406 L 189.875 83.816406 Z M 229.46875 122.28125 C 228.609375 124.257812 227.492188 126.03125 226.074219 127.550781 C 224.457031 129.121094 222.480469 130.386719 220.152344 131.300781 C 217.824219 132.164062 214.328125 132.667969 209.671875 132.667969 L 189.875 132.667969 L 189.875 99.324219 L 209.671875 99.324219 C 214.328125 99.324219 217.824219 99.78125 220.152344 100.691406 C 222.53125 101.605469 224.507812 102.871094 226.074219 104.441406 C 227.492188 105.960938 228.609375 107.6875 229.46875 109.613281 C 230.328125 111.539062 230.734375 113.613281 230.734375 115.894531 C 230.734375 118.175781 230.328125 120.304688 229.46875 122.28125 Z M 339.847656 79.863281 C 334.429688 75 327.039062 72.566406 317.824219 72.566406 C 309.570312 72.566406 302.785156 74.59375 297.519531 78.597656 C 292.960938 82.042969 289.773438 86.402344 288 91.570312 C 287.796875 92.128906 288.152344 92.738281 288.757812 92.835938 L 301.824219 95.117188 C 302.277344 95.21875 302.683594 94.964844 302.886719 94.5625 C 305.519531 88.683594 310.53125 85.792969 317.925781 85.792969 C 322.886719 85.792969 326.785156 87.164062 329.519531 89.949219 C 332.253906 92.738281 333.671875 96.4375 333.671875 101.046875 L 333.671875 103.734375 C 326.734375 101.65625 320.203125 100.640625 314.125 100.640625 C 305.519531 100.640625 298.328125 102.820312 292.609375 107.179688 C 286.886719 111.539062 284.050781 117.667969 284.050781 125.523438 C 284.050781 133.023438 286.632812 138.902344 291.847656 143.160156 C 297.0625 147.414062 303.339844 149.542969 310.734375 149.542969 C 320.203125 149.59375 327.898438 146.808594 333.671875 141.132812 L 333.671875 146.859375 C 333.671875 147.515625 334.226562 148.074219 334.886719 148.074219 L 346.9375 148.074219 C 347.59375 148.074219 348.152344 147.515625 348.152344 146.859375 L 348.152344 99.984375 C 348 91.46875 345.316406 84.730469 339.847656 79.863281 Z M 327.492188 130.640625 C 323.441406 133.988281 318.480469 135.609375 312.609375 135.609375 C 308.304688 135.609375 304.960938 134.644531 302.683594 132.71875 C 300.40625 130.792969 299.242188 128.160156 299.242188 124.8125 C 299.242188 121.164062 300.707031 118.429688 303.59375 116.605469 C 306.480469 114.78125 310.175781 113.816406 314.683594 113.816406 C 320.507812 113.816406 326.785156 114.832031 333.519531 116.910156 C 333.570312 122.789062 331.542969 127.296875 327.492188 130.640625 Z M 697.46875 79.863281 C 692.050781 75 684.660156 72.566406 675.441406 72.566406 C 667.191406 72.566406 660.40625 74.59375 655.140625 78.597656 C 650.582031 82.042969 647.390625 86.402344 645.621094 91.570312 C 645.417969 92.128906 645.773438 92.738281 646.378906 92.835938 L 659.441406 95.117188 C 659.898438 95.21875 660.304688 94.964844 660.507812 94.5625 C 663.140625 88.683594 668.152344 85.792969 675.542969 85.792969 C 680.507812 85.792969 684.40625 87.164062 687.140625 89.949219 C 689.875 92.738281 691.292969 96.4375 691.292969 101.046875 L 691.292969 103.734375 C 684.355469 101.65625 677.824219 100.640625 671.746094 100.640625 C 663.140625 100.640625 655.949219 102.820312 650.226562 107.179688 C 644.507812 111.539062 641.671875 117.667969 641.671875 125.523438 C 641.671875 133.023438 644.253906 138.902344 649.46875 143.160156 C 654.683594 147.414062 660.960938 149.542969 668.355469 149.542969 C 677.824219 149.59375 685.519531 146.808594 691.292969 141.132812 L 691.292969 146.859375 C 691.292969 147.515625 691.847656 148.074219 692.507812 148.074219 L 704.558594 148.074219 C 705.214844 148.074219 705.773438 147.515625 705.773438 146.859375 L 705.773438 99.984375 C 705.621094 91.46875 702.886719 84.730469 697.46875 79.863281 Z M 685.113281 130.640625 C 681.0625 133.988281 676.101562 135.609375 670.226562 135.609375 C 665.925781 135.609375 662.582031 134.644531 660.304688 132.71875 C 658.023438 130.792969 656.859375 128.160156 656.859375 124.8125 C 656.859375 121.164062 658.328125 118.429688 661.214844 116.605469 C 664.101562 114.78125 667.796875 113.816406 672.304688 113.816406 C 678.125 113.816406 684.40625 114.832031 691.140625 116.910156 C 691.191406 122.789062 689.164062 127.296875 685.113281 130.640625 Z M 685.113281 130.640625 "/>
</g>
</svg>
