<?xml version="1.0" encoding="UTF-8"?>
<svg xmlns="http://www.w3.org/2000/svg" xmlns:xlink="http://www.w3.org/1999/xlink" width="385pt" height="100pt" viewBox="0 0 385 100" version="1.1">
<g id="surface1">
<path style=" stroke:none;fill-rule:nonzero;fill:rgb(84.705882%,83.137255%,82.745098%);fill-opacity:1;" d="M 49.371094 87.054688 C 71.699219 85.621094 89.730469 86.085938 89.960938 88.023438 C 90.195312 89.921875 72.164062 92.789062 49.835938 94.457031 C 27.511719 95.890625 9.480469 95.425781 9.246094 93.488281 C 9.015625 91.355469 27.046875 88.488281 49.371094 87.054688 "/>
<path style=" stroke:none;fill-rule:nonzero;fill:rgb(15.686275%,17.254902%,20%);fill-opacity:1;" d="M 89.496094 27.867188 C 89.496094 27.171875 88.800781 26.433594 88.066406 26.203125 L 84.042969 25.738281 C 83.074219 25.738281 82.144531 26.433594 82.144531 27.402344 L 82.378906 35.503906 L 80.019531 35.738281 L 78.585938 7.210938 C 78.355469 1.9375 61.25 -0.929688 43.453125 0.269531 L 42.757812 0.269531 C 22.597656 1.242188 8.320312 5.96875 8.589844 10.738281 L 10.023438 39.496094 L 7.660156 39.730469 L 7.351562 32.132812 C 7.351562 31.164062 6.382812 30.464844 5.457031 30.699219 L 1.433594 31.433594 C 0.464844 31.433594 0 32.402344 0 33.101562 L 0.464844 43.332031 C 0.464844 44.300781 1.160156 45 2.128906 45 L 6.152344 44.765625 C 7.121094 44.535156 7.816406 43.796875 7.816406 43.101562 L 7.816406 42.636719 L 10.175781 42.402344 L 12.074219 79.496094 C 12.074219 81.164062 13.734375 82.597656 15.398438 82.597656 L 17.527344 82.597656 L 17.761719 89.496094 C 17.761719 90.699219 18.960938 91.628906 20.121094 91.628906 L 24.144531 91.394531 C 25.578125 91.394531 26.503906 90.425781 26.273438 89.03125 L 26.039062 82.132812 L 68.527344 80 L 68.757812 87.132812 C 68.757812 88.332031 69.957031 89.261719 71.117188 89.261719 L 75.144531 89.03125 C 76.34375 89.03125 77.503906 87.828125 77.269531 86.667969 L 77.039062 79.535156 L 78.933594 79.535156 C 80.597656 79.535156 82.03125 77.867188 82.03125 76.203125 L 80.132812 38.875 L 82.496094 38.644531 C 82.496094 39.84375 83.460938 40.542969 84.160156 40.308594 L 88.183594 40.078125 C 89.148438 40.078125 89.847656 39.378906 89.847656 38.410156 Z M 65.042969 52.09375 C 64.8125 49.226562 66.941406 46.859375 69.804688 46.628906 C 72.667969 46.394531 75.027344 48.527344 75.257812 51.394531 C 75.492188 54.261719 73.363281 56.859375 70.5 56.859375 C 67.636719 57.09375 65.277344 54.960938 65.042969 52.09375 Z M 43.21875 3.140625 C 50.804688 2.675781 57.925781 2.90625 57.925781 3.605469 L 58.15625 8.371094 C 58.15625 8.605469 58.15625 8.835938 57.460938 8.835938 L 29.445312 10.269531 C 28.75 10.269531 28.980469 10.039062 28.980469 9.804688 L 28.710938 5.039062 C 28.710938 4.300781 34.667969 3.605469 43.21875 3.140625 Z M 13.773438 18.566406 C 13.773438 17.132812 14.742188 15.96875 16.136719 15.96875 L 71.929688 13.101562 C 73.363281 13.101562 74.523438 14.070312 74.523438 15.464844 L 75.492188 35.929688 C 75.492188 37.363281 74.523438 38.527344 73.128906 38.527344 L 17.335938 41.394531 C 15.902344 41.394531 14.742188 40.425781 14.742188 39.03125 Z M 15.207031 54.730469 C 14.972656 51.859375 17.335938 49.496094 19.964844 49.261719 C 22.828125 49.03125 25.1875 51.164062 25.421875 54.03125 C 25.652344 56.898438 23.527344 59.496094 20.664062 59.496094 C 17.800781 59.730469 15.4375 57.558594 15.207031 54.730469 Z M 47.246094 73.253906 L 46.78125 73.253906 C 36.332031 73.953125 26.117188 71.125 25.886719 66.355469 L 25.886719 64.921875 C 25.886719 63.488281 26.851562 62.324219 28.246094 62.324219 L 64.347656 60.425781 C 65.777344 60.425781 66.941406 61.394531 66.941406 62.789062 L 67.171875 64.226562 C 67.402344 68.757812 59.125 72.558594 47.246094 73.253906 Z M 47.246094 73.253906 "/>
<path style=" stroke:none;fill-rule:nonzero;fill:rgb(15.686275%,17.254902%,20%);fill-opacity:1;" d="M 372.230469 60.890625 C 371.265625 59.226562 369.871094 58.023438 367.976562 56.628906 C 366.078125 55.425781 362.984375 54.03125 358.726562 52.597656 C 353.734375 50.699219 350.175781 49.03125 348.511719 47.597656 C 346.847656 46.164062 345.917969 44.03125 345.917969 41.667969 C 345.917969 39.300781 347.117188 37.636719 349.246094 36.433594 C 351.335938 35.234375 354.433594 34.496094 358.457031 34.496094 C 362.480469 34.496094 366.773438 35.464844 371.265625 37.363281 L 372.925781 33.566406 C 368.402344 31.667969 363.449219 30.699219 358.457031 30.699219 C 353.234375 30.699219 348.976562 31.667969 346.113281 33.796875 C 343.25 35.929688 341.585938 38.566406 341.585938 42.132812 C 341.585938 44.261719 342.050781 46.164062 343.019531 47.828125 C 343.984375 49.496094 345.378906 50.699219 347.273438 52.09375 C 349.167969 53.292969 352.496094 54.691406 357.257812 56.628906 C 361.785156 58.292969 364.839844 59.730469 366.738281 61.394531 C 368.632812 63.0625 369.601562 64.960938 369.601562 67.324219 C 369.601562 69.921875 368.402344 72.09375 366.039062 73.527344 C 363.679688 75.195312 360.121094 75.890625 355.359375 75.890625 C 350.136719 75.890625 345.144531 74.691406 340.425781 72.324219 L 340.425781 77.09375 C 344.21875 78.992188 349.207031 79.960938 355.359375 79.960938 C 361.28125 79.960938 365.808594 78.757812 369.136719 76.628906 C 372.464844 74.261719 373.894531 71.164062 373.894531 66.859375 C 373.625 64.226562 373.160156 62.558594 372.230469 60.890625 M 291.515625 31.433594 L 291.515625 62.363281 C 291.515625 73.757812 296.972656 79.730469 307.652344 79.730469 C 315.46875 79.730469 320.960938 77.363281 324.019531 72.363281 L 324.25 72.363281 L 324.949219 78.796875 L 328.507812 78.796875 L 328.507812 31.433594 L 324.25 31.433594 L 324.25 57.597656 C 324.25 64.03125 322.820312 68.527344 320.226562 71.394531 C 317.632812 74.261719 313.339844 75.660156 307.882812 75.660156 C 303.628906 75.660156 300.53125 74.457031 298.636719 72.324219 C 296.738281 70.195312 295.539062 66.628906 295.539062 61.859375 L 295.539062 31.433594 Z M 255.648438 47.363281 C 267.992188 47.363281 274.183594 51.628906 274.183594 60.425781 C 274.183594 69.921875 268.261719 74.691406 256.613281 74.691406 L 241.640625 74.691406 L 241.640625 47.324219 L 255.648438 47.324219 Z M 241.640625 19.070312 L 254.449219 19.070312 C 260.367188 19.070312 265.128906 20.039062 268.222656 21.9375 C 271.320312 23.835938 272.75 26.9375 272.75 31.203125 C 272.75 35.464844 271.320312 38.566406 268.726562 40.464844 C 266.132812 42.363281 261.605469 43.566406 255.6875 43.566406 L 241.679688 43.566406 L 241.679688 19.070312 Z M 237.382812 78.722656 L 256.847656 78.722656 C 263.96875 78.722656 269.421875 77.054688 273.214844 73.953125 C 277.007812 70.851562 279.132812 66.355469 279.132812 60.386719 C 279.132812 56.125 277.933594 52.558594 275.574219 50.15625 C 273.214844 47.75 269.382812 46.125 264.429688 45.386719 L 264.429688 45.15625 C 268.6875 44.457031 272.015625 42.789062 274.183594 40.386719 C 276.347656 37.984375 277.507812 34.921875 277.507812 31.125 C 277.507812 25.660156 275.613281 21.628906 272.054688 18.992188 C 268.492188 16.394531 262.574219 14.960938 254.71875 14.960938 L 237.382812 14.960938 Z M 237.382812 78.722656 "/>
<path style=" stroke:none;fill-rule:nonzero;fill:rgb(32.941176%,37.647059%,44.705882%);fill-opacity:1;" d="M 205.578125 78.722656 C 205.347656 79.691406 204.378906 81.820312 203.21875 84.921875 C 202.019531 88.023438 201.089844 90.386719 200.121094 91.820312 C 199.15625 93.253906 198.226562 94.417969 197.027344 95.15625 C 195.828125 95.851562 194.667969 96.125 193.234375 96.125 C 191.339844 96.125 189.441406 95.890625 187.78125 95.425781 L 187.78125 99.226562 C 189.90625 99.921875 191.570312 100.195312 193.234375 100.195312 C 195.363281 100.195312 197.257812 99.730469 198.921875 98.992188 C 200.585938 98.292969 201.785156 97.09375 202.945312 95.425781 C 204.109375 93.757812 205.539062 90.890625 207.203125 86.394531 L 228.332031 31.472656 L 223.804688 31.472656 L 213.820312 57.636719 C 210.957031 65 209.0625 70.699219 207.898438 74.261719 L 207.667969 74.261719 C 206.972656 71.394531 204.804688 65.929688 201.980469 57.867188 L 191.996094 31.242188 L 187.46875 31.242188 Z M 150.519531 78.722656 L 174.273438 20.234375 L 174.507812 20.234375 C 174.273438 23.796875 174.042969 27.363281 174.042969 30.699219 L 174.042969 78.953125 L 178.570312 78.953125 L 178.570312 15.234375 L 171.914062 15.234375 L 149.355469 71.125 L 149.125 71.125 L 126.527344 15.234375 L 119.640625 15.234375 L 119.640625 78.722656 L 123.894531 78.722656 L 123.894531 31.164062 C 123.894531 27.363281 123.894531 23.796875 123.664062 20.234375 L 123.894531 20.234375 L 147.652344 78.953125 Z M 150.519531 78.722656 "/>
<path style=" stroke:none;fill-rule:nonzero;fill:rgb(100%,100%,100%);fill-opacity:1;" d="M 369.289062 26.164062 C 369.289062 20.890625 369.289062 15.621094 369.289062 10.347656 C 374.554688 10.347656 379.816406 10.347656 385.078125 10.347656 C 385.078125 15.621094 385.078125 20.890625 385.078125 26.164062 C 379.816406 26.164062 374.554688 26.164062 369.289062 26.164062 Z M 380.164062 17.828125 C 380.164062 17.789062 380.125 17.789062 380.125 17.789062 C 379.429688 16.667969 378.691406 15.503906 377.996094 14.378906 C 377.957031 14.339844 377.957031 14.339844 377.917969 14.339844 C 377.53125 14.339844 377.144531 14.339844 376.757812 14.339844 C 376.757812 14.339844 376.71875 14.339844 376.71875 14.339844 C 376.71875 16.820312 376.71875 19.261719 376.71875 21.746094 C 377.027344 21.746094 377.378906 21.746094 377.6875 21.746094 C 377.6875 19.765625 377.6875 17.75 377.6875 15.773438 C 378.5 17.09375 379.3125 18.410156 380.164062 19.730469 C 380.976562 18.410156 381.789062 17.09375 382.601562 15.8125 C 382.601562 17.789062 382.601562 19.765625 382.601562 21.78125 C 382.949219 21.78125 383.257812 21.78125 383.566406 21.78125 C 383.566406 19.300781 383.566406 16.859375 383.566406 14.378906 C 383.53125 14.378906 383.53125 14.378906 383.53125 14.378906 C 383.144531 14.378906 382.753906 14.378906 382.40625 14.378906 C 382.367188 14.378906 382.332031 14.378906 382.332031 14.417969 C 381.632812 15.542969 380.898438 16.707031 380.203125 17.828125 C 380.164062 17.789062 380.164062 17.789062 380.164062 17.828125 Z M 373.738281 21.707031 C 373.738281 19.574219 373.738281 17.441406 373.738281 15.269531 C 374.398438 15.269531 375.054688 15.269531 375.714844 15.269531 C 375.714844 14.921875 375.714844 14.613281 375.714844 14.300781 C 374.089844 14.300781 372.425781 14.300781 370.800781 14.300781 C 370.800781 14.613281 370.800781 14.960938 370.800781 15.269531 C 371.457031 15.269531 372.113281 15.269531 372.773438 15.269531 C 372.773438 17.402344 372.773438 19.535156 372.773438 21.667969 C 373.082031 21.707031 373.429688 21.707031 373.738281 21.707031 Z M 373.738281 21.707031 "/>
<path style=" stroke:none;fill-rule:nonzero;fill:rgb(15.686275%,17.254902%,20%);fill-opacity:1;" d="M 380.164062 17.828125 C 380.164062 17.828125 380.203125 17.789062 380.203125 17.789062 C 380.898438 16.667969 381.632812 15.503906 382.332031 14.378906 C 382.367188 14.339844 382.367188 14.339844 382.40625 14.339844 C 382.792969 14.339844 383.179688 14.339844 383.53125 14.339844 C 383.53125 14.339844 383.566406 14.339844 383.566406 14.339844 C 383.566406 16.820312 383.566406 19.261719 383.566406 21.746094 C 383.257812 21.746094 382.910156 21.746094 382.601562 21.746094 C 382.601562 19.765625 382.601562 17.789062 382.601562 15.773438 C 381.789062 17.09375 380.976562 18.410156 380.164062 19.691406 C 379.351562 18.371094 378.539062 17.054688 377.6875 15.738281 C 377.6875 17.75 377.6875 19.730469 377.6875 21.707031 C 377.339844 21.707031 377.027344 21.707031 376.71875 21.707031 C 376.71875 19.226562 376.71875 16.78125 376.71875 14.300781 C 376.71875 14.300781 376.757812 14.300781 376.757812 14.300781 C 377.144531 14.300781 377.53125 14.300781 377.917969 14.300781 C 377.957031 14.300781 377.957031 14.300781 377.996094 14.339844 C 378.691406 15.464844 379.429688 16.628906 380.125 17.75 C 380.125 17.789062 380.125 17.789062 380.164062 17.828125 Z M 380.164062 17.828125 "/>
<path style=" stroke:none;fill-rule:nonzero;fill:rgb(15.686275%,17.254902%,20%);fill-opacity:1;" d="M 373.738281 21.707031 C 373.390625 21.707031 373.082031 21.707031 372.773438 21.707031 C 372.773438 19.574219 372.773438 17.441406 372.773438 15.308594 C 372.113281 15.308594 371.457031 15.308594 370.800781 15.308594 C 370.800781 14.960938 370.800781 14.652344 370.800781 14.339844 C 372.425781 14.339844 374.089844 14.339844 375.714844 14.339844 C 375.714844 14.652344 375.714844 15 375.714844 15.308594 C 375.054688 15.308594 374.398438 15.308594 373.738281 15.308594 C 373.738281 17.441406 373.738281 19.574219 373.738281 21.707031 Z M 373.738281 21.707031 "/>
</g>
</svg>
